<?xml version="1.0" encoding="UTF-8" standalone="no"?>
<!-- Created with Inkscape (http://www.inkscape.org/) -->

<svg
   xmlns:dc="http://purl.org/dc/elements/1.1/"
   xmlns:cc="http://creativecommons.org/ns#"
   xmlns:rdf="http://www.w3.org/1999/02/22-rdf-syntax-ns#"
   xmlns:svg="http://www.w3.org/2000/svg"
   xmlns="http://www.w3.org/2000/svg"
   xmlns:sodipodi="http://sodipodi.sourceforge.net/DTD/sodipodi-0.dtd"
   xmlns:inkscape="http://www.inkscape.org/namespaces/inkscape"
   width="256px"
   height="256px"
   viewBox="0 0 256 256"
   version="1.1"
   id="SVGRoot"
   inkscape:version="0.92.4 (5da689c313, 2019-01-14)"
   sodipodi:docname="deepines-template.svg">
  <defs
     id="defs1408" />
  <sodipodi:namedview
     id="base"
     pagecolor="#ffffff"
     bordercolor="#666666"
     borderopacity="1.0"
     inkscape:pageopacity="0.0"
     inkscape:pageshadow="2"
     inkscape:zoom="2"
     inkscape:cx="130.68838"
     inkscape:cy="157.07612"
     inkscape:document-units="px"
     inkscape:current-layer="layer1"
     showgrid="false"
     inkscape:window-width="1366"
     inkscape:window-height="728"
     inkscape:window-x="0"
     inkscape:window-y="0"
     inkscape:window-maximized="1"
     inkscape:grid-bbox="true" />
  <metadata
     id="metadata1411">
    <rdf:RDF>
      <cc:Work
         rdf:about="">
        <dc:format>image/svg+xml</dc:format>
        <dc:type
           rdf:resource="http://purl.org/dc/dcmitype/StillImage" />
        <dc:title></dc:title>
      </cc:Work>
    </rdf:RDF>
  </metadata>
  <g
     inkscape:label="Capa 1"
     inkscape:groupmode="layer"
     id="layer1">
    <path
       d="M 163.58997,8.5584879 C 97.339673,-10.816599 27.940923,27.167927 8.5580192,93.418225 -10.817068,159.66071 27.175295,229.06727 93.425593,248.44236 159.66026,267.81744 229.07464,229.8329 248.44191,163.59042 267.817,97.332305 229.82464,27.933556 163.58997,8.5584879 Z"
       id="path11793"
       inkscape:connector-curvature="0"
       style="fill:#eef3f7;stroke-width:3.9062674" />
    <path
       d="M 162.49438,12.306708 C 98.314015,-6.463021 31.083555,30.334738 12.306263,94.515105 -6.4634701,158.6879 30.341871,225.92593 94.522238,244.69567 158.68745,263.46539 225.93306,226.66765 244.69522,162.49483 263.46495,98.306885 226.65963,31.076422 162.49438,12.306708 Z"
       id="path15"
       inkscape:connector-curvature="0"
       style="fill:#ffffff;stroke-width:3.9062674" />
    <path
       d="M 165.90752,25.46538 C 150.1887,19.730979 134.08706,18.184113 118.46199,19.637229 100.34473,21.066923 91.500936,26.676323 92.024376,25.660693 62.399242,36.238867 37.352255,58.988969 25.750639,90.895363 5.0943006,147.71593 34.35224,210.55215 91.086871,231.23974 147.84494,251.92733 210.5874,222.63033 231.24375,165.80976 251.90791,108.98919 222.64996,46.160786 165.90752,25.46538 Z M 94.821263,220.96626 c -6.046902,-2.21095 -11.695366,-5.02346 -17.015702,-8.23441 26.437619,2.03126 60.937769,-4.06252 84.203499,-25.83606 0,0 44.35177,-35.43766 12.26568,-93.594167 0,0 5.1719,23.437607 -1.42188,42.718937 0,0 -6.28908,26.21887 -34.24234,33.8361 C 97.438462,181.07546 50.524189,152.25501 30.914725,138.29402 29.438156,123.94238 30.750662,109.11419 36.008498,94.645379 43.805409,73.207782 58.461724,56.481145 76.368055,45.24672 c -4.476583,31.320452 -0.937505,60.15652 4.148456,72.2347 6.828155,16.19538 18.695401,35.08609 41.843939,37.50798 23.14854,2.4297 35.91422,-19.23446 35.91422,-19.23446 11.87505,-18.04696 13.73444,-43.961136 13.55475,-44.586139 -0.17969,-0.632815 -3.16408,-2.34376 -3.16408,-2.34376 -7.99222,32.343899 -21.17197,43.148629 -21.17197,43.148629 -20.78134,20.06259 -35.50016,6.14847 -35.50016,6.14847 -15.820378,-16.99227 -4.7422,-44.609578 -4.7422,-44.609578 6.19533,-18.812585 24.25011,-46.343959 44.71113,-60.344022 3.40627,0.843754 6.83598,1.367194 10.20317,2.593762 12.38288,4.515645 23.22667,11.320363 32.39859,19.679776 -14.96101,5.460962 -39.11737,17.007889 -39.11737,17.007889 -38.28923,16.125073 -40.87518,40.515813 -40.87518,40.515813 -3.96095,25.14074 15.98445,14.50006 15.98445,14.50006 20.53134,-10.00004 30.61733,-41.164248 30.61733,-41.164248 -6.40628,-1.218755 -11.45318,0.726566 -11.45318,0.726566 -8.19535,20.226652 -24.91418,28.547002 -24.91418,28.547002 -6.57815,3.4844 -8.10941,-2.67188 -8.10941,-2.67188 -1.10938,-4.6094 4.75784,-5.39847 4.75784,-5.39847 9.10941,-3.53907 14.93756,-13.109432 16.25788,-17.023512 1.3125,-3.921892 3.75783,-4.226581 3.75783,-4.226581 12.48443,-3.984394 23.86729,-4.875023 23.86729,-4.875023 15.50007,-1.906259 39.22675,5.484401 39.22675,5.484401 5.32033,2.140634 10.42192,3.742204 14.95319,5.02346 8.69534,21.726655 10.07035,46.468965 1.45313,70.187815 -18.57821,51.13304 -75.06284,77.50816 -126.149007,58.89089 z"
       id="path11795"
       inkscape:connector-curvature="0"
       style="opacity:0.8;fill:#00b7ff;stroke-width:3.9062674" />
  </g>
</svg>
